<svg xmlns="http://www.w3.org/2000/svg" aria-hidden="true" style="position:absolute;width:0;height:0;overflow:hidden">
  <defs>
    <symbol id="home" viewBox="0 0 32 32">
      <path fill="#6e78e8" d="M3.556 0A3.556 3.556 0 0 0 0 3.556v24.889a3.556 3.556 0 0 0 3.556 3.556h24.889a3.556 3.556 0 0 0 3.556-3.556V3.556A3.556 3.556 0 0 0 28.445 0H3.556zm10.311 17.987v6.902H8.534v-9.203h-3.2L16.001 5.333l10.667 10.353h-3.2v9.203h-5.333v-6.902h-4.267z" style="fill:var(--color1, #6e78e8)"/>
    </symbol>
    <symbol id="statistics" viewBox="0 0 32 32">
      <path fill="#4a56e2" d="M3.556 0h24.889a3.556 3.556 0 0 1 3.556 3.556v24.889a3.556 3.556 0 0 1-3.556 3.556H3.556A3.556 3.556 0 0 1 0 28.445V3.556A3.556 3.556 0 0 1 3.556 0zm22.626 13.63c1.244 0 2.263-1.067 2.263-2.37s-1.018-2.37-2.263-2.37c-1.244 0-2.263 1.067-2.263 2.37 0 .213.023.415.079.604l-4.016 4.219c-.181-.059-.385-.083-.588-.083s-.407.024-.588.083l-2.885-3.022c.057-.19.079-.403.079-.616 0-1.304-1.018-2.37-2.263-2.37s-2.263 1.067-2.263 2.37c0 .213.023.427.079.616l-5.159 5.393a1.848 1.848 0 0 0-.577-.083c-1.244 0-2.263 1.067-2.263 2.37s1.018 2.37 2.263 2.37 2.263-1.067 2.263-2.37a2.12 2.12 0 0 0-.079-.604l5.147-5.404c.181.059.385.083.588.083s.407-.024.588-.083l2.885 3.022c-.057.19-.079.403-.079.616 0 1.304 1.018 2.37 2.263 2.37s2.263-1.067 2.263-2.37c0-.213-.023-.427-.079-.616l4.027-4.207c.181.059.373.083.577.083z" style="fill:var(--color2, #4a56e2)"/>
    </symbol>
    <symbol id="exit" viewBox="0 0 32 32">
      <path fill="#bdbdbd" d="M20.051 23.237h2.499v4.997a3.752 3.752 0 0 1-3.748 3.748H3.748A3.752 3.752 0 0 1 0 28.234V3.748A3.752 3.752 0 0 1 3.748 0h15.054a3.752 3.752 0 0 1 3.748 3.748v4.997h-2.499V3.748a1.25 1.25 0 0 0-1.249-1.249H3.748a1.25 1.25 0 0 0-1.249 1.249v24.486a1.25 1.25 0 0 0 1.249 1.249h15.054a1.25 1.25 0 0 0 1.249-1.249v-4.997zm6.06-13.135-1.767 1.767 2.873 2.874H11.056v2.499h16.161l-2.873 2.873 1.767 1.767L32 15.993l-5.889-5.89z" style="fill:var(--color3, #bdbdbd)"/>
    </symbol>
    <symbol id="password" viewBox="0 0 32 32">
      <path fill="#e0e0e0" d="M25.143 10.667h-1.524V7.619C23.619 3.413 20.206 0 16 0S8.381 3.413 8.381 7.619v3.048H6.857a3.057 3.057 0 0 0-3.048 3.048v15.238a3.057 3.057 0 0 0 3.048 3.048h18.286a3.057 3.057 0 0 0 3.048-3.048V13.715a3.057 3.057 0 0 0-3.048-3.048zM16 24.381c-1.676 0-3.048-1.371-3.048-3.048s1.371-3.048 3.048-3.048c1.676 0 3.048 1.371 3.048 3.048S17.677 24.381 16 24.381zm4.724-13.714h-9.448V7.619c0-2.606 2.118-4.724 4.724-4.724s4.724 2.118 4.724 4.724v3.048z" style="fill:var(--color4, #e0e0e0)"/>
    </symbol>
    <symbol id="wallet" viewBox="0 0 32 32">
      <path fill="#24cca7" d="m3.755 7.619 16.211-4.537-.859-1.779C18.545.146 17.175-.331 16.047.245L1.534 7.62h2.219zM24.813 3.048a2.05 2.05 0 0 0-.586.087L9.215 7.619h18.431l-.693-2.779c-.266-1.083-1.163-1.793-2.14-1.793z" style="fill:var(--color5, #24cca7)"/>
      <path fill="#4a56e2" d="M28.36 8.573H1.801A1.799 1.799 0 0 0 0 10.355v19.862A1.79 1.79 0 0 0 1.797 32h26.559a1.79 1.79 0 0 0 1.797-1.783v-4.973H19.491c-1.685 0-3.054-1.358-3.054-3.03V18.25c0-.82.331-1.565.866-2.111a3.03 3.03 0 0 1 2.185-.916h10.666v-4.867a1.785 1.785 0 0 0-1.793-1.783z" style="fill:var(--color2, #4a56e2)"/>
      <path fill="#4a56e2" d="M31.414 16.926a1.804 1.804 0 0 0-1.211-.467H19.491a1.79 1.79 0 0 0-1.797 1.783v3.968a1.79 1.79 0 0 0 1.797 1.783h10.712c.205 0 .399-.036.582-.096.237-.078.449-.207.629-.371.359-.324.586-.795.586-1.316v-3.968c0-.52-.226-.991-.586-1.316zm-8.171 3.655a.895.895 0 0 1-.898.891h-.597a.895.895 0 0 1-.898-.891v-.592c0-.285.133-.538.345-.699a.91.91 0 0 1 .553-.193h.597c.496 0 .898.399.898.891v.592z" style="fill:var(--color2, #4a56e2)"/>
    </symbol>
      <symbol id="edit" viewBox="0 0 14 14">
      <path stroke='#000000' d="M10.5 5.83343L8.16666 3.5001M1.45831 12.5418L3.43253 12.3224C3.67373 12.2956 3.79433 12.2822 3.90706 12.2457C4.00707 12.2133 4.10224 12.1676 4.19 12.1097C4.28891 12.0445 4.37471 11.9587 4.54632 11.7871L12.25 4.08343C12.8943 3.4391 12.8943 2.39443 12.25 1.75009C11.6057 1.10576 10.561 1.10576 9.91666 1.75009L2.21299 9.45375C2.04138 9.62536 1.95558 9.71116 1.89035 9.81008C1.83248 9.89783 1.78674 9.99301 1.75436 10.093C1.71787 10.2057 1.70447 10.3263 1.67767 10.5675L1.45831 12.5418Z" stroke="black" stroke-opacity="0.8" stroke-width="1.2" stroke-linecap="round" stroke-linejoin="round"/>

    </symbol>
  </defs>
</svg>
